# xmcd CD database file
#
# Track frame offsets:
#	150
#	15531
#	49009
#	70579
#	89500
#	120241
#	175094
#	197436
#	222942
#
# Disc length: 3391 seconds
#
# Revision: 0
# Processed by: cddbd v1.4PL0 Copyright (c) Steve Scherf et al.
# Submitted via: CDex 1.40Beta9
#
DISCID=6c0d3d09
DTITLE=Buddy Guy - Sweet Tea
DYEAR=1900
DGENRE=Blues
TTITLE0=Done Got Old
TTITLE1=Baby Please Don't Leave Me
TTITLE2=Look What All You Got
TTITLE3=Stay All Night
TTITLE4=Tramp
TTITLE5=I Gotta Try You Girl
TTITLE6=Who's Been Foolin You
TTITLE7=It's A Jungle Out There
TTITLE8=Rememberin Stevie
EXTD=ID3G: 0
EXTT0=
EXTT1=
EXTT2=
EXTT3=
EXTT4=
EXTT5=
EXTT6=
EXTT7=
EXTT8=
PLAYORDER=
